/* XPM */
static char *result[] = {
/* columns rows colors chars-per-pixel */
"48 48 3 1 ",
"  c #293141",
". c #3E7688",
"X c None",
/* pixels */
"XXX........................................XXXXX",
"XXX........................................XXXXX",
"X............................................XX.",
"X............................................XX.",
".........                              ......XX.",
".........                              ......XX.",
".....                                    .......",
".....                                    .......",
".....      ........................        .....",
".....      ........................        .....",
"...    ..............................      .....",
"...    ..............................      .....",
"...    ..............................      .....",
"...    ..............................      .....",
"...      ............................    .......",
"...      ............................    .......",
".....                                    .......",
".....                                    .......",
".......                              ........   ",
".......                              ........   ",
" ............................................   ",
" ............................................   ",
"   ........................................    .",
"   ........................................    .",
".                                            ...",
".                                            ...",
".....      ........    ..............    .......",
".....      ........    ..............    .......",
".......  ............  ..............  ........ ",
".......  ............  ..............  ........ ",
" ......  ............      ..........  ......   ",
" ......  ............      ..........  ......   ",
"                                               .",
"                                               .",
".............  ..............    ............  .",
".............  ..............    ............  .",
".............  ..............  ..............   ",
".............  ..............  ..............   ",
" ............  ..............  ............     ",
" ............  ..............  ............     ",
"                                               .",
"                                               .",
"...      ..........    ............  ...........",
"...      ..........    ............  ...........",
".......  ............  ............  ..........X",
".......  ............  ............  ..........X",
"X......    ..........  ..........    ........XXX",
"X......    ..........  ..........    ........XXX"
};
