/* XPM */
static char *result[] = {
/* columns rows colors chars-per-pixel */
"48 48 3 1 ",
"  c #293141",
". c #3E7688",
"X c None",
/* pixels */
"XXXXXXXXX..............................XXXXXXXXX",
"XXXXXXXXX..............................XXXXXXXXX",
"XXX........................................XXXXX",
"XXX........................................XXXXX",
"X............                      ........XXXX.",
"X............                      ........XXXX.",
".......                                ......XX.",
".......                                ......XX.",
".....          ..................        .......",
".....          ..................        .......",
"...        ........................      .......",
"...        ........................      .......",
"...      ............................      .....",
"...      ............................      .....",
"...      ............................      .....",
"...      ............................      .....",
"...    ................................    .....",
"...    ................................    .....",
"...    ................................    .....",
"...    ................................    .....",
"...    ................................    .....",
"...    ................................    .....",
"...    ................................    .....",
"...    ................................    .....",
"...    ................................    .....",
"...    ................................    .....",
"...    ................................    .....",
"...    ................................    .....",
"...    ................................    .....",
"...    ................................    .....",
"...    ................................    .....",
"...    ................................    .....",
"...    ................................    .....",
"...    ................................    .....",
"...    ................................    .....",
"...    ................................    .....",
"...    ................................    .....",
"...    ................................    .....",
"...    ................................    .....",
"...    ................................    .....",
"...    ................................    .....",
"...    ................................    .....",
"...    ................................    .....",
"...    ................................    .....",
"...    ................................    .....",
"...    ................................    .....",
"...    ................................    ....X",
"...    ................................    ....X"
};
