/* XPM */
static char *result[] = {
/* columns rows colors chars-per-pixel */
"48 48 3 1 ",
"  c #293141",
". c #3E7688",
"X c None",
/* pixels */
"XXXXXXX..............................XXXXXXXXXXX",
"XXXXXXX..............................XXXXXXXXXXX",
"XXX......................................XXXXXXX",
"XXX......................................XXXXXXX",
"X........                          ........XXXX.",
"X........                          ........XXXX.",
".....                                ........XX.",
".....                                ........XX.",
"...        ....................        ......XX.",
"...        ....................        ......XX.",
"...        ........................      .......",
"...        ........................      .......",
"...      ............................    .......",
"...      ............................    .......",
"...      ............................      .....",
"...      ............................      .....",
"...    ..............................      .....",
"...    ..............................      .....",
"...    ................................    .....",
"...    ................................    .....",
"...    ................................    .....",
"...    ................................    .....",
"...    ................................    .....",
"...    ................................    .....",
"...    ................................    .....",
"...    ................................    .....",
"...    ................................    .....",
"...    ................................    .....",
"...    ................................    .....",
"...    ................................    .....",
"...    ................................    .....",
"...    ................................    .....",
"...    ................................    .....",
"...    ................................    .....",
"...    ................................    .....",
"...    ................................    .....",
"...    ................................    .....",
"...    ................................    .....",
"...    ................................    .....",
"...    ................................    .....",
"...    ................................    .....",
"...    ................................    .....",
"...    ................................    .....",
"...    ................................    .....",
"...    ................................    .....",
"...    ................................    .....",
"...    ................................    ....X",
"...    ................................    ....X"
};
