/* XPM */
static char *result[] = {
/* columns rows colors chars-per-pixel */
"96 36 3 1 ",
"  c #15181F",
". c white",
"X c None",
/* pixels */
"XXXXXXXXXXXXXXXXXXXXXXXXXXXXXXXXXXXXXXXXXXXXXXXXXXXXXXXXXXXXXXXXXXXXXXXXXXXXXXXXXXXXXXXXXXXXXXXX",
"XXXXXXXXXXXXXXXXXXXXXXXXXXXXXXXXXXXXXXXXXXXXXXXXXXXXXXXXXXXXXXXXXXXXXXXXXXXXXXXXXXXXXXXXXXXXXXXX",
"XXXXX........................................................................................XXX",
"XXXX...........................................................................................X",
"XXXX...........................................................................................X",
"XX.....                                                                                   .....X",
"XX...                                                                                       ...X",
"XX...                                                                                       ...X",
"XX...                                                                                       ...X",
"XX...                                                                                       ...X",
"XX...                                                                                       ...X",
"XX...                                                                                       ...X",
"X....                                                                                       ...X",
"X....                                                                                       ...X",
"X....                                                                                       ...X",
"X...                                                                                        ...X",
"X...                                                                                        ...X",
"X...                                                                                        ...X",
"X...                                                                                        ...X",
"X...                                                                                        ...X",
"X...                                                                                        ...X",
"X...                                                                                        ...X",
"X...                                                                                        ...X",
"X...                                                                                        ...X",
"X...                                                                                        ...X",
"X...                                                                                        ...X",
"X...                                                                                      .....X",
"X...                                                                                      .....X",
"X...                                                                                      .....X",
"X...                                                                                      ...XXX",
"X....                                                                                     ...XXX",
"X....                                                                                     ...XXX",
"X............................................................................................XXX",
"XX..........................................................................................XXXX",
"XX..........................................................................................XXXX",
"XXXXXXXXXXXXXXXXXXXXXXXXXXXXXXXXXXXXXXXXXXXXXXXXXXXXXXXXXXXXXXXXXXXXXXXXXXXXXXXXXXXXXXXXXXXXXXXX"
};
