/* XPM */
static char *result[] = {
/* columns rows colors chars-per-pixel */
"16 24 2 1 ",
"  c #15181F",
". c white",
/* pixels */
"                ",
"                ",
"     ....       ",
"   ........     ",
"  ..........    ",
"  ....   ....   ",
" ...      ...   ",
"  .       ....  ",
"           ...  ",
"           ...  ",
"          ...   ",
"         ....   ",
"        ....    ",
"       ....     ",
"     .....      ",
"   ......       ",
"  ......        ",
" ........       ",
"  ............  ",
"   ............ ",
"        ......  ",
"                ",
"                ",
"                "
};
