/* XPM */
static char *result[] = {
/* columns rows colors chars-per-pixel */
"48 48 3 1 ",
"  c gray3",
". c white",
"X c None",
/* pixels */
"XXXXXXXXXXXXXXXXXXXXXXXXXXXXXXXXXXXXXXXXXXXXXXXX",
"XXXXXXXXXXXXXXXXXXXXXXXXXXXXXXXXXXXXXXXXXXXXXXXX",
"XXXXXXXXXXXXXXXXXXXXXXXXXXXXXXXXXXXXXXXXXXXXXXXX",
"XXXXXXXXXXXXXXXXXXXXXXXXXXXXXXXXXXXXXXXXXXXXXXXX",
"XXXXXXXXXXXXXXXXXXXXXXX....XXXXXXXXXXXXXXXXXXXXX",
"XXXXXXXXXXXXXXXXXXXXXXX....XXXXXXXXXXXXXXXXXXXXX",
"XXXXXXXXXXXXX....XXXXXX....XXXXXXXXXXXXXXXXXXXXX",
"XXXXXXXXXXXXX....XXXXXX....XXXXXXXXXXXXXXXXXXXXX",
"XXXXXXXXXXX......XXXX......XXXXXXXXXXXXXXXXXXXXX",
"XXXXXXXXXXX......XXXX......XXXXXXXXXXXXXXXXXXXXX",
"XXXXXXXXXXX......XXXX......XXXXXXXXXXXXXXXXXXXXX",
"XXXXXXXXXXX......XXXX......XXXXXXXXXXXXXXXXXXXXX",
"XXXXXXXXXXX........................XXXXXXXXXXXXX",
"XXXXXXXXXXX........................XXXXXXXXXXXXX",
"XXXXXXX................................XXXXXXXXX",
"XXXXXXX................................XXXXXXXXX",
"XXXXX....................................XXXXXXX",
"XXXXX....................................XXXXXXX",
"XXXXX..    ..............................XXXXXXX",
"XXXXX..    ..............................XXXXXXX",
"XXX....    ..............................XXXXXXX",
"XXX....    ..............................XXXXXXX",
"XXX............    ......................XXXXXXX",
"XXX............    ......................XXXXXXX",
"XXX............    ......................XXXXXXX",
"XXX............    ......................XXXXXXX",
"XXX....................................XXXXXXXXX",
"XXX....................................XXXXXXXXX",
"XXX..................................XXXXXXXXXXX",
"XXX..................................XXXXXXXXXXX",
"XXX..................................XXXXXXXXXXX",
"XXX..................................XXXXXXXXXXX",
"XXXXX..............................XXXXXXXXXXXXX",
"XXXXX..............................XXXXXXXXXXXXX",
"XXXXXXX......XXXX....XXXXXX........XXXXXXXXXXXXX",
"XXXXXXX......XXXX....XXXXXX........XXXXXXXXXXXXX",
"XXXXXXXXX......XX......XX........XXXXXXXXXXXXXXX",
"XXXXXXXXX......XX......XX........XXXXXXXXXXXXXXX",
"XXXXXXXXXXX......XX............XXXXXXXXXXXXXXXXX",
"XXXXXXXXXXX......XX............XXXXXXXXXXXXXXXXX",
"XXXXXXXXXXXXX....XX..........XXXXXXXXXXXXXXXXXXX",
"XXXXXXXXXXXXX....XX..........XXXXXXXXXXXXXXXXXXX",
"XXXXXXXXXXXXXXXXXXXXXXXXXXXXXXXXXXXXXXXXXXXXXXXX",
"XXXXXXXXXXXXXXXXXXXXXXXXXXXXXXXXXXXXXXXXXXXXXXXX",
"XXXXXXXXXXXXXXXXXXXXXXXXXXXXXXXXXXXXXXXXXXXXXXXX",
"XXXXXXXXXXXXXXXXXXXXXXXXXXXXXXXXXXXXXXXXXXXXXXXX",
"XXXXXXXXXXXXXXXXXXXXXXXXXXXXXXXXXXXXXXXXXXXXXXXX",
"XXXXXXXXXXXXXXXXXXXXXXXXXXXXXXXXXXXXXXXXXXXXXXXX"
};
