/* XPM */
static char *result[] = {
/* columns rows colors chars-per-pixel */
"48 48 3 1 ",
"  c gray3",
". c white",
"X c None",
/* pixels */
"XXXXXXXXXXXXXXXXXXXXXXXXXXXXXXXXXXXXXXXXXXXXXXXX",
"XXXXXXXXXXXXXXXXXXXXXXXXXXXXXXXXXXXXXXXXXXXXXXXX",
"XXXXXXXXXXXXXXXXXXXXXXXXXXXXXXXXXXXXXXXXXXXXXXXX",
"XXXXXXXXXXXXXXXXXXXXXXXXXXXXXXXXXXXXXXXXXXXXXXXX",
"XXXXXXXXXXXXXXXXXXXXXXXXXXXXXXXXXXXXXXXXXXXXXXXX",
"XXXXXXXXXXXXXXXXXXXXXXXXXXXXXXXXXXXXXXXXXXXXXXXX",
"XXXXXXXXXXXXXXXXXXXXXXXXXXXXXXXXXXXXXXXXXXXXXXXX",
"XXXXXXXXXXXXXXXXXXXXXXXXXXXXXXXXXXXXXXXXXXXXXXXX",
"XXXXXXXXXXXXXXXXXXX....XXXXXXXX....XXXXXXXXXXXXX",
"XXXXXXXXXXXXXXXXXXX....XXXXXXXX....XXXXXXXXXXXXX",
"XXXXXXXXXXXXXXXXXXX......XXXXXX....XXXXXXXXXXXXX",
"XXXXXXXXXXXXXXXXXXX......XXXXXX....XXXXXXXXXXXXX",
"XXXXXXXXXXXXXXXXXXX......XXXXXX....XXXXXXXXXXXXX",
"XXXXXXXXXXXXXXXXXXX......XXXXXX....XXXXXXXXXXXXX",
"XXXXXXXXX............................XXXXXXXXXXX",
"XXXXXXXXX............................XXXXXXXXXXX",
"XXXXXXX................................XXXXXXXXX",
"XXXXXXX................................XXXXXXXXX",
"XXXXXXX..........................    ....XXXXXXX",
"XXXXXXX..........................    ....XXXXXXX",
"XXXXX............................    ....XXXXXXX",
"XXXXX............................    ....XXXXXXX",
"XXXXX......................    ..........XXXXXXX",
"XXXXX......................    ..........XXXXXXX",
"XXXXX......................    ..........XXXXXXX",
"XXXXX......................    ..........XXXXXXX",
"XXXXXXX..................................XXXXXXX",
"XXXXXXX..................................XXXXXXX",
"XXXXXXX..................................XXXXXXX",
"XXXXXXX..................................XXXXXXX",
"XXXXXXXXX................................XXXXXXX",
"XXXXXXXXX................................XXXXXXX",
"XXXXXXXXX....XX........................XXXXXXXXX",
"XXXXXXXXX....XX........................XXXXXXXXX",
"XXXXXXXXX....XXXX....XXXXXX....XXXX....XXXXXXXXX",
"XXXXXXXXX....XXXX....XXXXXX....XXXX....XXXXXXXXX",
"XXXXXXXXX....XX......XXXXXX....XXXX......XXXXXXX",
"XXXXXXXXX....XX......XXXXXX....XXXX......XXXXXXX",
"XXXXXXXXX....XX......XXXXXX....XXXX......XXXXXXX",
"XXXXXXXXX....XX......XXXXXX....XXXX......XXXXXXX",
"XXXXXXXXX....XX....XXXXXXXX....XXXXXX....XXXXXXX",
"XXXXXXXXX....XX....XXXXXXXX....XXXXXX....XXXXXXX",
"XXXXXXXXXXXXXXXXXXXXXXXXXXXXXXXXXXXXXXXXXXXXXXXX",
"XXXXXXXXXXXXXXXXXXXXXXXXXXXXXXXXXXXXXXXXXXXXXXXX",
"XXXXXXXXXXXXXXXXXXXXXXXXXXXXXXXXXXXXXXXXXXXXXXXX",
"XXXXXXXXXXXXXXXXXXXXXXXXXXXXXXXXXXXXXXXXXXXXXXXX",
"XXXXXXXXXXXXXXXXXXXXXXXXXXXXXXXXXXXXXXXXXXXXXXXX",
"XXXXXXXXXXXXXXXXXXXXXXXXXXXXXXXXXXXXXXXXXXXXXXXX"
};
