/* XPM */
static char *result[] = {
/* columns rows colors chars-per-pixel */
"48 48 3 1 ",
"  c gray3",
". c white",
"X c None",
/* pixels */
"XXXXXXXXXXXXXXXXXXXXXXXXXXXXXXXXXXXXXXXXXXXXXXXX",
"XXXXXXXXXXXXXXXXXXXXXXXXXXXXXXXXXXXXXXXXXXXXXXXX",
"XXXXXXXXXXXXXXXXXXXXXXXXXXXXXXXXXXXXXXXXXXXXXXXX",
"XXXXXXXXXXXXXXXXXXXXXXXXXXXXXXXXXXXXXXXXXXXXXXXX",
"XXXXXXXXXXXXXXXXXXXXXXXXXXXXXXXXXXXXXXXXXXXXXXXX",
"XXXXXXXXXXXXXXXXXXXXXXXXXXXXXXXXXXXXXXXXXXXXXXXX",
"XXXXXXXXXXXXXXXXXXX....XXXXXXXXXXXXXXXXXXXXXXXXX",
"XXXXXXXXXXXXXXXXXXX....XXXXXXXXXXXXXXXXXXXXXXXXX",
"XXXXXXXXXXXXXXXXXXX....XXXXXX....XXXXXXXXXXXXXXX",
"XXXXXXXXXXXXXXXXXXX....XXXXXX....XXXXXXXXXXXXXXX",
"XXXXXXXXXXXXXXXXXXX......XXXX......XXXXXXXXXXXXX",
"XXXXXXXXXXXXXXXXXXX......XXXX......XXXXXXXXXXXXX",
"XXXXXXXXXXXXXXXXXXX......XXXX......XXXXXXXXXXXXX",
"XXXXXXXXXXXXXXXXXXX......XXXX......XXXXXXXXXXXXX",
"XXXXXXXXXXX........................XXXXXXXXXXXXX",
"XXXXXXXXXXX........................XXXXXXXXXXXXX",
"XXXXXXX................................XXXXXXXXX",
"XXXXXXX................................XXXXXXXXX",
"XXXXX....................................XXXXXXX",
"XXXXX....................................XXXXXXX",
"XXXXX..............................    ..XXXXXXX",
"XXXXX..............................    ..XXXXXXX",
"XXXXX..............................    ....XXXXX",
"XXXXX..............................    ....XXXXX",
"XXXXX......................    ............XXXXX",
"XXXXX......................    ............XXXXX",
"XXXXX......................    ............XXXXX",
"XXXXX......................    ............XXXXX",
"XXXXXXX....................................XXXXX",
"XXXXXXX....................................XXXXX",
"XXXXXXXXX..................................XXXXX",
"XXXXXXXXX..................................XXXXX",
"XXXXXXXXX..................................XXXXX",
"XXXXXXXXX..................................XXXXX",
"XXXXXXXXX....XX..........................XXXXXXX",
"XXXXXXXXX....XX..........................XXXXXXX",
"XXXXXXX......XX......XXXXXX......XXXX....XXXXXXX",
"XXXXXXX......XX......XXXXXX......XXXX....XXXXXXX",
"XXXXXXX....XXXX....XXXXXXXXXX....XXXX....XXXXXXX",
"XXXXXXX....XXXX....XXXXXXXXXX....XXXX....XXXXXXX",
"XXXXXXX....XXXX....XXXXXXXXXX....XXXX....XXXXXXX",
"XXXXXXX....XXXX....XXXXXXXXXX....XXXX....XXXXXXX",
"XXXXXXXXXXXXXXXXXXXXXXXXXXXXX....XXXXXXXXXXXXXXX",
"XXXXXXXXXXXXXXXXXXXXXXXXXXXXX....XXXXXXXXXXXXXXX",
"XXXXXXXXXXXXXXXXXXXXXXXXXXXXXXXXXXXXXXXXXXXXXXXX",
"XXXXXXXXXXXXXXXXXXXXXXXXXXXXXXXXXXXXXXXXXXXXXXXX",
"XXXXXXXXXXXXXXXXXXXXXXXXXXXXXXXXXXXXXXXXXXXXXXXX",
"XXXXXXXXXXXXXXXXXXXXXXXXXXXXXXXXXXXXXXXXXXXXXXXX"
};
