/* XPM */
static char *result[] = {
/* columns rows colors chars-per-pixel */
"48 48 3 1 ",
"  c gray3",
". c white",
"X c None",
/* pixels */
"XXXXXXXXXXXXXXXXXXXXXXXXXXXXXXXXXXXXXXXXXXXXXXXX",
"XXXXXXXXXXXXXXXXXXXXXXXXXXXXXXXXXXXXXXXXXXXXXXXX",
"XXXXXXXXXXXXXXXXXXXXXXXXXXXXXXXXXXXXXXXXXXXXXXXX",
"XXXXXXXXXXXXXXXXXXXXXXXXXXXXXXXXXXXXXXXXXXXXXXXX",
"XXXXXXXXXXXXXXXXXXXXXXXXXXXXX....XXXXXXXXXXXXXXX",
"XXXXXXXXXXXXXXXXXXXXXXXXXXXXX....XXXXXXXXXXXXXXX",
"XXXXXXXXXXXXXXXXX....XXXXXXXX....XXXXXXXXXXXXXXX",
"XXXXXXXXXXXXXXXXX....XXXXXXXX....XXXXXXXXXXXXXXX",
"XXXXXXXXXXXXXXXXX......XXXXXX......XXXXXXXXXXXXX",
"XXXXXXXXXXXXXXXXX......XXXXXX......XXXXXXXXXXXXX",
"XXXXXXXXXXXXXXXXX......XXXXXX......XXXXXXXXXXXXX",
"XXXXXXXXXXXXXXXXX......XXXXXX......XXXXXXXXXXXXX",
"XXXXXXXXX..............................XXXXXXXXX",
"XXXXXXXXX..............................XXXXXXXXX",
"XXXXXXX..................................XXXXXXX",
"XXXXXXX..................................XXXXXXX",
"XXXXX..............................    ....XXXXX",
"XXXXX..............................    ....XXXXX",
"XXXXX..............................    ....XXXXX",
"XXXXX..............................    ....XXXXX",
"XXXXX......................    ............XXXXX",
"XXXXX......................    ............XXXXX",
"XXXXX......................    ............XXXXX",
"XXXXX......................    ............XXXXX",
"XXXXX......................................XXXXX",
"XXXXX......................................XXXXX",
"XXXXXXX....................................XXXXX",
"XXXXXXX....................................XXXXX",
"XXXXXXX..................................XXXXXXX",
"XXXXXXX..................................XXXXXXX",
"XXXXXXXXX................................XXXXXXX",
"XXXXXXXXX................................XXXXXXX",
"XXXXXXXXXXX......XX............XXXX......XXXXXXX",
"XXXXXXXXXXX......XX............XXXX......XXXXXXX",
"XXXXXXXXXXX....................XX......XXXXXXXXX",
"XXXXXXXXXXX....................XX......XXXXXXXXX",
"XXXXXXXXXXXXX......XX................XXXXXXXXXXX",
"XXXXXXXXXXXXX......XX................XXXXXXXXXXX",
"XXXXXXXXXXXXXXX....XX......XX......XXXXXXXXXXXXX",
"XXXXXXXXXXXXXXX....XX......XX......XXXXXXXXXXXXX",
"XXXXXXXXXXXXXXXXXXXXXXXXXXXXXXXXXXXXXXXXXXXXXXXX",
"XXXXXXXXXXXXXXXXXXXXXXXXXXXXXXXXXXXXXXXXXXXXXXXX",
"XXXXXXXXXXXXXXXXXXXXXXXXXXXXXXXXXXXXXXXXXXXXXXXX",
"XXXXXXXXXXXXXXXXXXXXXXXXXXXXXXXXXXXXXXXXXXXXXXXX",
"XXXXXXXXXXXXXXXXXXXXXXXXXXXXXXXXXXXXXXXXXXXXXXXX",
"XXXXXXXXXXXXXXXXXXXXXXXXXXXXXXXXXXXXXXXXXXXXXXXX",
"XXXXXXXXXXXXXXXXXXXXXXXXXXXXXXXXXXXXXXXXXXXXXXXX",
"XXXXXXXXXXXXXXXXXXXXXXXXXXXXXXXXXXXXXXXXXXXXXXXX"
};
