/* XPM */
static char *result[] = {
/* columns rows colors chars-per-pixel */
"48 48 3 1 ",
"  c gray3",
". c white",
"X c None",
/* pixels */
"XXXXXXXXXXXXXXXXXXXXXXXXXXXXXXXXXXXXXXXXXXXXXXXX",
"XXXXXXXXXXXXXXXXXXXXXXXXXXXXXXXXXXXXXXXXXXXXXXXX",
"XXXXXXXXXXXXXXXXXXXXXXXXXXXXXXXXXXXXXXXXXXXXXXXX",
"XXXXXXXXXXXXXXXXXXXXXXXXXXXXXXXXXXXXXXXXXXXXXXXX",
"XXXXXXXXXXXXXXXXXXXXXXXXXXXXXXXXXXXXXXXXXXXXXXXX",
"XXXXXXXXXXXXXXXXXXXXXXXXXXXXXXXXXXXXXXXXXXXXXXXX",
"XXXXXXXXXXX....XXXXXXXX....XXXXXXXXXXXXXXXXXXXXX",
"XXXXXXXXXXX....XXXXXXXX....XXXXXXXXXXXXXXXXXXXXX",
"XXXXXXXXXXX....XXXXXX......XXXXXXXXXXXXXXXXXXXXX",
"XXXXXXXXXXX....XXXXXX......XXXXXXXXXXXXXXXXXXXXX",
"XXXXXXXXXXX....XXXXXX......XXXXXXXXXXXXXXXXXXXXX",
"XXXXXXXXXXX....XXXXXX......XXXXXXXXXXXXXXXXXXXXX",
"XXXXXXXXX............................XXXXXXXXXXX",
"XXXXXXXXX............................XXXXXXXXXXX",
"XXXXXXX................................XXXXXXXXX",
"XXXXXXX................................XXXXXXXXX",
"XXXXX....    ..........................XXXXXXXXX",
"XXXXX....    ..........................XXXXXXXXX",
"XXXXX....    ............................XXXXXXX",
"XXXXX....    ............................XXXXXXX",
"XXXXX..........    ......................XXXXXXX",
"XXXXX..........    ......................XXXXXXX",
"XXXXX..........    ......................XXXXXXX",
"XXXXX..........    ......................XXXXXXX",
"XXXXX..................................XXXXXXXXX",
"XXXXX..................................XXXXXXXXX",
"XXXXX..................................XXXXXXXXX",
"XXXXX..................................XXXXXXXXX",
"XXXXX................................XXXXXXXXXXX",
"XXXXX................................XXXXXXXXXXX",
"XXXXXXX..............................XXXXXXXXXXX",
"XXXXXXX..............................XXXXXXXXXXX",
"XXXXXXX......XX......XX....XX......XXXXXXXXXXXXX",
"XXXXXXX......XX......XX....XX......XXXXXXXXXXXXX",
"XXXXXXX..........................XXXXXXXXXXXXXXX",
"XXXXXXX..........................XXXXXXXXXXXXXXX",
"XXXXXXXXX........................XXXXXXXXXXXXXXX",
"XXXXXXXXX........................XXXXXXXXXXXXXXX",
"XXXXXXXXXXX......XX......XX....XXXXXXXXXXXXXXXXX",
"XXXXXXXXXXX......XX......XX....XXXXXXXXXXXXXXXXX",
"XXXXXXXXXXXXXXXXXXXXXXXXXXXXXXXXXXXXXXXXXXXXXXXX",
"XXXXXXXXXXXXXXXXXXXXXXXXXXXXXXXXXXXXXXXXXXXXXXXX",
"XXXXXXXXXXXXXXXXXXXXXXXXXXXXXXXXXXXXXXXXXXXXXXXX",
"XXXXXXXXXXXXXXXXXXXXXXXXXXXXXXXXXXXXXXXXXXXXXXXX",
"XXXXXXXXXXXXXXXXXXXXXXXXXXXXXXXXXXXXXXXXXXXXXXXX",
"XXXXXXXXXXXXXXXXXXXXXXXXXXXXXXXXXXXXXXXXXXXXXXXX",
"XXXXXXXXXXXXXXXXXXXXXXXXXXXXXXXXXXXXXXXXXXXXXXXX",
"XXXXXXXXXXXXXXXXXXXXXXXXXXXXXXXXXXXXXXXXXXXXXXXX"
};
