/* XPM */
static char *result[] = {
/* columns rows colors chars-per-pixel */
"48 48 3 1 ",
"  c gray3",
". c white",
"X c None",
/* pixels */
"XXXXXXXXXXXXXXXXXXXXXXXXXXXXXXXXXXXXXXXXXXXXXXXX",
"XXXXXXXXXXXXXXXXXXXXXXXXXXXXXXXXXXXXXXXXXXXXXXXX",
"XXXXXXXXXXXXXXXXXXXXXXXXXXXXXXXXXXXXXXXXXXXXXXXX",
"XXXXXXXXXXXXXXXXXXXXXXXXXXXXXXXXXXXXXXXXXXXXXXXX",
"XXXXXXXXXXXXXXXXXXXXXXXXXXXXXXXXXXXXXXXXXXXXXXXX",
"XXXXXXXXXXXXXXXXXXXXXXXXXXXXXXXXXXXXXXXXXXXXXXXX",
"XXXXXXXXXXX....XXXXXXXX....XXXXXXXXXXXXXXXXXXXXX",
"XXXXXXXXXXX....XXXXXXXX....XXXXXXXXXXXXXXXXXXXXX",
"XXXXXXXXXXX....XXXXXX......XXXXXXXXXXXXXXXXXXXXX",
"XXXXXXXXXXX....XXXXXX......XXXXXXXXXXXXXXXXXXXXX",
"XXXXXXXXXXX....XXXXXX......XXXXXXXXXXXXXXXXXXXXX",
"XXXXXXXXXXX....XXXXXX......XXXXXXXXXXXXXXXXXXXXX",
"XXXXXXXXX............................XXXXXXXXXXX",
"XXXXXXXXX............................XXXXXXXXXXX",
"XXXXXXX................................XXXXXXXXX",
"XXXXXXX................................XXXXXXXXX",
"XXXXX....    ..........................XXXXXXXXX",
"XXXXX....    ..........................XXXXXXXXX",
"XXXXX....    ............................XXXXXXX",
"XXXXX....    ............................XXXXXXX",
"XXXXX..........    ......................XXXXXXX",
"XXXXX..........    ......................XXXXXXX",
"XXXXX..........    ......................XXXXXXX",
"XXXXX..........    ......................XXXXXXX",
"XXXXX..................................XXXXXXXXX",
"XXXXX..................................XXXXXXXXX",
"XXXXX..................................XXXXXXXXX",
"XXXXX..................................XXXXXXXXX",
"XXXXX..................................XXXXXXXXX",
"XXXXX..................................XXXXXXXXX",
"XXX....................................XXXXXXXX.",
"XXX....................................XXXXXXXX.",
".......XX........XXXXXXXXXX..............XXXXXX.",
".......XX........XXXXXXXXXX..............XXXXXX.",
".....XXXX......XXXXXXXXXXXXXX......XX........XXX",
".....XXXX......XXXXXXXXXXXXXX......XX........XXX",
"XXXXXXXXX....XXXXXXXXXXXXXXXXXX....XXXXXX....XXX",
"XXXXXXXXX....XXXXXXXXXXXXXXXXXX....XXXXXX....XXX",
"XXXXXXXXXXXXXXXXXXXXXXXXXXXXXXXXXXXXXXXXXXXXXXXX",
"XXXXXXXXXXXXXXXXXXXXXXXXXXXXXXXXXXXXXXXXXXXXXXXX",
"XXXXXXXXXXXXXXXXXXXXXXXXXXXXXXXXXXXXXXXXXXXXXXXX",
"XXXXXXXXXXXXXXXXXXXXXXXXXXXXXXXXXXXXXXXXXXXXXXXX",
"XXXXXXXXXXXXXXXXXXXXXXXXXXXXXXXXXXXXXXXXXXXXXXXX",
"XXXXXXXXXXXXXXXXXXXXXXXXXXXXXXXXXXXXXXXXXXXXXXXX",
"XXXXXXXXXXXXXXXXXXXXXXXXXXXXXXXXXXXXXXXXXXXXXXXX",
"XXXXXXXXXXXXXXXXXXXXXXXXXXXXXXXXXXXXXXXXXXXXXXXX",
"XXXXXXXXXXXXXXXXXXXXXXXXXXXXXXXXXXXXXXXXXXXXXXXX",
"XXXXXXXXXXXXXXXXXXXXXXXXXXXXXXXXXXXXXXXXXXXXXXXX"
};
