/* XPM */
static char *result[] = {
/* columns rows colors chars-per-pixel */
"48 48 3 1 ",
"  c gray3",
". c white",
"X c None",
/* pixels */
"XXXXXXXXXXXXXXXXXXXXXXXXXXXXXXXXXXXXXXXXXXXXXXXX",
"XXXXXXXXXXXXXXXXXXXXXXXXXXXXXXXXXXXXXXXXXXXXXXXX",
"XXXXXXXXXXXXXXXXXXXXXXXXXXXXXXXXXXXXXXXXXXXXXXXX",
"XXXXXXXXXXXXXXXXXXXXXXXXXXXXXXXXXXXXXXXXXXXXXXXX",
"XXXXXXXXXXXXXXXXXXXXXXXXXXXXXXXXXXXXXXXXXXXXXXXX",
"XXXXXXXXXXXXXXXXXXXXXXXXXXXXXXXXXXXXXXXXXXXXXXXX",
"XXXXXXXXXXXXXXXXXXX..........XXXXXXXXXXXXXXXXXXX",
"XXXXXXXXXXXXXXXXXXX..........XXXXXXXXXXXXXXXXXXX",
"XXXXXXXXXXXXXXXXX..............XXXXXXXXXXXXXXXXX",
"XXXXXXXXXXXXXXXXX..............XXXXXXXXXXXXXXXXX",
"XXXXXXXXXXXXXXX..................XXXXXXXXXXXXXXX",
"XXXXXXXXXXXXXXX..................XXXXXXXXXXXXXXX",
"XXXXXXXXXXXXXXX....................XXXXXXXXXXXXX",
"XXXXXXXXXXXXXXX....................XXXXXXXXXXXXX",
"XXXXXXXXXXXXX......................XXXXXXXXXXXXX",
"XXXXXXXXXXXXX......................XXXXXXXXXXXXX",
"XXXXXXXXXXXXX........................XXXXXXXXXXX",
"XXXXXXXXXXXXX........................XXXXXXXXXXX",
"XXXXXXXXXXXXX........................XXXXXXXXXXX",
"XXXXXXXXXXXXX........................XXXXXXXXXXX",
"XXXXXXXXXXX..........................XXXXXXXXXXX",
"XXXXXXXXXXX..........................XXXXXXXXXXX",
"XXXXXXXXXXX..........................XXXXXXXXXXX",
"XXXXXXXXXXX..........................XXXXXXXXXXX",
"XXXXXXXXXXX......    ................XXXXXXXXXXX",
"XXXXXXXXXXX......    ................XXXXXXXXXXX",
"XXXXXXXXXXX......    ......    ......XXXXXXXXXXX",
"XXXXXXXXXXX......    ......    ......XXXXXXXXXXX",
"XXXXXXXXXXX................    ......XXXXXXXXXXX",
"XXXXXXXXXXX................    ......XXXXXXXXXXX",
"XXXXXXXXXXX..........................XXXXXXXXXXX",
"XXXXXXXXXXX..........................XXXXXXXXXXX",
"XXXXXXXXXXXXX......................XXXXXXXXXXXXX",
"XXXXXXXXXXXXX......................XXXXXXXXXXXXX",
"XXXXXXXXXXXXX......................XXXXXXXXXXXXX",
"XXXXXXXXXXXXX......................XXXXXXXXXXXXX",
"XXXXXXXXXXXXX....................XXXXXXXXXXXXXXX",
"XXXXXXXXXXXXX....................XXXXXXXXXXXXXXX",
"XXXXXXXXXXXXX......XXXXXXXXXX....XXXXXXXXXXXXXXX",
"XXXXXXXXXXXXX......XXXXXXXXXX....XXXXXXXXXXXXXXX",
"XXXXXXXXXXXXXXX....XXXXXXXXXX....XXXXXXXXXXXXXXX",
"XXXXXXXXXXXXXXX....XXXXXXXXXX....XXXXXXXXXXXXXXX",
"XXXXXXXXXXXXXXXXXXXXXXXXXXXXXXXXXXXXXXXXXXXXXXXX",
"XXXXXXXXXXXXXXXXXXXXXXXXXXXXXXXXXXXXXXXXXXXXXXXX",
"XXXXXXXXXXXXXXXXXXXXXXXXXXXXXXXXXXXXXXXXXXXXXXXX",
"XXXXXXXXXXXXXXXXXXXXXXXXXXXXXXXXXXXXXXXXXXXXXXXX",
"XXXXXXXXXXXXXXXXXXXXXXXXXXXXXXXXXXXXXXXXXXXXXXXX",
"XXXXXXXXXXXXXXXXXXXXXXXXXXXXXXXXXXXXXXXXXXXXXXXX"
};
