/* XPM */
static char *result[] = {
/* columns rows colors chars-per-pixel */
"48 48 3 1 ",
"  c gray3",
". c white",
"X c None",
/* pixels */
"XXXXXXXXXXXXXXXXXXXXXXXXXXXXXXXXXXXXXXXXXXXXXXXX",
"XXXXXXXXXXXXXXXXXXXXXXXXXXXXXXXXXXXXXXXXXXXXXXXX",
"XXXXXXXXXXXXXXXXXXXXXXXXXXXXXXXXXXXXXXXXXXXXXXXX",
"XXXXXXXXXXXXXXXXXXXXXXXXXXXXXXXXXXXXXXXXXXXXXXXX",
"XXXXXXXXXXXXXXXXXXXXXXXXXXXXXXXXXXXXXXXXXXXXXXXX",
"XXXXXXXXXXXXXXXXXXXXXXXXXXXXXXXXXXXXXXXXXXXXXXXX",
"XXXXXXXXXXXXXXXXXXX....XXXXXXXX....XXXXXXXXXXXXX",
"XXXXXXXXXXXXXXXXXXX....XXXXXXXX....XXXXXXXXXXXXX",
"XXXXXXXXXXXXXXXXXXX......XXXXXX....XXXXXXXXXXXXX",
"XXXXXXXXXXXXXXXXXXX......XXXXXX....XXXXXXXXXXXXX",
"XXXXXXXXXXXXXXXXXXX......XXXXXX....XXXXXXXXXXXXX",
"XXXXXXXXXXXXXXXXXXX......XXXXXX....XXXXXXXXXXXXX",
"XXXXXXXXX............................XXXXXXXXXXX",
"XXXXXXXXX............................XXXXXXXXXXX",
"XXXXXXX................................XXXXXXXXX",
"XXXXXXX................................XXXXXXXXX",
"XXXXXXX..........................    ....XXXXXXX",
"XXXXXXX..........................    ....XXXXXXX",
"XXXXX............................    ....XXXXXXX",
"XXXXX............................    ....XXXXXXX",
"XXXXX......................    ..........XXXXXXX",
"XXXXX......................    ..........XXXXXXX",
"XXXXX......................    ..........XXXXXXX",
"XXXXX......................    ..........XXXXXXX",
"XXXXXXX..................................XXXXXXX",
"XXXXXXX..................................XXXXXXX",
"XXXXXXX..................................XXXXXXX",
"XXXXXXX..................................XXXXXXX",
"XXXXXXX..................................XXXXXXX",
"XXXXXXX..................................XXXXXXX",
"XXXXXXX....................................XXXXX",
"XXXXXXX....................................XXXXX",
"XXXXX..............XXXXXXXXXX........XX........X",
"XXXXX..............XXXXXXXXXX........XX........X",
"X........XX......XXXXXXXXXXXXXX......XXXX......X",
"X........XX......XXXXXXXXXXXXXX......XXXX......X",
"X....XXXXXX....XXXXXXXXXXXXXXXXXX....XXXXXXXXXXX",
"X....XXXXXX....XXXXXXXXXXXXXXXXXX....XXXXXXXXXXX",
"XXXXXXXXXXXXXXXXXXXXXXXXXXXXXXXXXXXXXXXXXXXXXXXX",
"XXXXXXXXXXXXXXXXXXXXXXXXXXXXXXXXXXXXXXXXXXXXXXXX",
"XXXXXXXXXXXXXXXXXXXXXXXXXXXXXXXXXXXXXXXXXXXXXXXX",
"XXXXXXXXXXXXXXXXXXXXXXXXXXXXXXXXXXXXXXXXXXXXXXXX",
"XXXXXXXXXXXXXXXXXXXXXXXXXXXXXXXXXXXXXXXXXXXXXXXX",
"XXXXXXXXXXXXXXXXXXXXXXXXXXXXXXXXXXXXXXXXXXXXXXXX",
"XXXXXXXXXXXXXXXXXXXXXXXXXXXXXXXXXXXXXXXXXXXXXXXX",
"XXXXXXXXXXXXXXXXXXXXXXXXXXXXXXXXXXXXXXXXXXXXXXXX",
"XXXXXXXXXXXXXXXXXXXXXXXXXXXXXXXXXXXXXXXXXXXXXXXX",
"XXXXXXXXXXXXXXXXXXXXXXXXXXXXXXXXXXXXXXXXXXXXXXXX"
};
