/* XPM */
static char *result[] = {
/* columns rows colors chars-per-pixel */
"48 48 3 1 ",
"  c gray3",
". c white",
"X c None",
/* pixels */
"XXXXXXXXXXXXXXXXXXXXXXXXXXXXXXXXXXXXXXXXXXXXXXXX",
"XXXXXXXXXXXXXXXXXXXXXXXXXXXXXXXXXXXXXXXXXXXXXXXX",
"XXXXXXXXXXXXXXXXXXXXXXXXXXXXXXXXXXXXXXXXXXXXXXXX",
"XXXXXXXXXXXXXXXXXXXXXXXXXXXXXXXXXXXXXXXXXXXXXXXX",
"XXXXXXXXXXXXXXXXXXXXXXXXXXXXXXXXXXXXXXXXXXXXXXXX",
"XXXXXXXXXXXXXXXXXXXXXXXXXXXXXXXXXXXXXXXXXXXXXXXX",
"XXXXXXXXXXXXXXXXXXXXXXXXXXXXXXXXXXXXXXXXXXXXXXXX",
"XXXXXXXXXXXXXXXXXXXXXXXXXXXXXXXXXXXXXXXXXXXXXXXX",
"XXXXXXXXXXX....XXXXXXXX....XXXXXXXXXXXXXXXXXXXXX",
"XXXXXXXXXXX....XXXXXXXX....XXXXXXXXXXXXXXXXXXXXX",
"XXXXXXXXXXX....XXXXXX......XXXXXXXXXXXXXXXXXXXXX",
"XXXXXXXXXXX....XXXXXX......XXXXXXXXXXXXXXXXXXXXX",
"XXXXXXXXXXX....XXXXXX......XXXXXXXXXXXXXXXXXXXXX",
"XXXXXXXXXXX....XXXXXX......XXXXXXXXXXXXXXXXXXXXX",
"XXXXXXXXX............................XXXXXXXXXXX",
"XXXXXXXXX............................XXXXXXXXXXX",
"XXXXXXX................................XXXXXXXXX",
"XXXXXXX................................XXXXXXXXX",
"XXXXX....    ..........................XXXXXXXXX",
"XXXXX....    ..........................XXXXXXXXX",
"XXXXX....    ............................XXXXXXX",
"XXXXX....    ............................XXXXXXX",
"XXXXX..........    ......................XXXXXXX",
"XXXXX..........    ......................XXXXXXX",
"XXXXX..........    ......................XXXXXXX",
"XXXXX..........    ......................XXXXXXX",
"XXXXX..................................XXXXXXXXX",
"XXXXX..................................XXXXXXXXX",
"XXXXX..................................XXXXXXXXX",
"XXXXX..................................XXXXXXXXX",
"XXXXX................................XXXXXXXXXXX",
"XXXXX................................XXXXXXXXXXX",
"XXXXXXX........................XX....XXXXXXXXXXX",
"XXXXXXX........................XX....XXXXXXXXXXX",
"XXXXXXX....XXXX....XXXXXX....XXXX....XXXXXXXXXXX",
"XXXXXXX....XXXX....XXXXXX....XXXX....XXXXXXXXXXX",
"XXXXX......XXXX....XXXXXX......XX....XXXXXXXXXXX",
"XXXXX......XXXX....XXXXXX......XX....XXXXXXXXXXX",
"XXXXX......XXXX....XXXXXX......XX....XXXXXXXXXXX",
"XXXXX......XXXX....XXXXXX......XX....XXXXXXXXXXX",
"XXXXX....XXXXXX....XXXXXXXX....XX....XXXXXXXXXXX",
"XXXXX....XXXXXX....XXXXXXXX....XX....XXXXXXXXXXX",
"XXXXXXXXXXXXXXXXXXXXXXXXXXXXXXXXXXXXXXXXXXXXXXXX",
"XXXXXXXXXXXXXXXXXXXXXXXXXXXXXXXXXXXXXXXXXXXXXXXX",
"XXXXXXXXXXXXXXXXXXXXXXXXXXXXXXXXXXXXXXXXXXXXXXXX",
"XXXXXXXXXXXXXXXXXXXXXXXXXXXXXXXXXXXXXXXXXXXXXXXX",
"XXXXXXXXXXXXXXXXXXXXXXXXXXXXXXXXXXXXXXXXXXXXXXXX",
"XXXXXXXXXXXXXXXXXXXXXXXXXXXXXXXXXXXXXXXXXXXXXXXX"
};
