/* XPM */
static char *result[] = {
/* columns rows colors chars-per-pixel */
"48 48 3 1 ",
"  c gray3",
". c white",
"X c None",
/* pixels */
"XXXXXXXXXXXXXXXXXXXXXXXXXXXXXXXXXXXXXXXXXXXXXXXX",
"XXXXXXXXXXXXXXXXXXXXXXXXXXXXXXXXXXXXXXXXXXXXXXXX",
"XXXXXXXXXXXXXXXXXXXXXXXXXXXXXXXXXXXXXXXXXXXXXXXX",
"XXXXXXXXXXXXXXXXXXXXXXXXXXXXXXXXXXXXXXXXXXXXXXXX",
"XXXXXXXXXXXXXXXXXXXXXXXXXXXXXXXXXXXXXXXXXXXXXXXX",
"XXXXXXXXXXXXXXXXXXXXXXXXXXXXXXXXXXXXXXXXXXXXXXXX",
"XXXXXXXXXXXXXXXXXXX..........XXXXXXXXXXXXXXXXXXX",
"XXXXXXXXXXXXXXXXXXX..........XXXXXXXXXXXXXXXXXXX",
"XXXXXXXXXXXXXXXXX..............XXXXXXXXXXXXXXXXX",
"XXXXXXXXXXXXXXXXX..............XXXXXXXXXXXXXXXXX",
"XXXXXXXXXXXXXXX..................XXXXXXXXXXXXXXX",
"XXXXXXXXXXXXXXX..................XXXXXXXXXXXXXXX",
"XXXXXXXXXXXXXXX....................XXXXXXXXXXXXX",
"XXXXXXXXXXXXXXX....................XXXXXXXXXXXXX",
"XXXXXXXXXXXXX......................XXXXXXXXXXXXX",
"XXXXXXXXXXXXX......................XXXXXXXXXXXXX",
"XXXXXXXXXXXXX........................XXXXXXXXXXX",
"XXXXXXXXXXXXX........................XXXXXXXXXXX",
"XXXXXXXXXXXXX........................XXXXXXXXXXX",
"XXXXXXXXXXXXX........................XXXXXXXXXXX",
"XXXXXXXXXXX..........................XXXXXXXXXXX",
"XXXXXXXXXXX..........................XXXXXXXXXXX",
"XXXXXXXXXXX..........................XXXXXXXXXXX",
"XXXXXXXXXXX..........................XXXXXXXXXXX",
"XXXXXXXXXXX......    ................XXXXXXXXXXX",
"XXXXXXXXXXX......    ................XXXXXXXXXXX",
"XXXXXXXXXXX......    ......    ......XXXXXXXXXXX",
"XXXXXXXXXXX......    ......    ......XXXXXXXXXXX",
"XXXXXXXXXXX................    ......XXXXXXXXXXX",
"XXXXXXXXXXX................    ......XXXXXXXXXXX",
"XXXXXXXXXXX..........................XXXXXXXXXXX",
"XXXXXXXXXXX..........................XXXXXXXXXXX",
"XXXXXXXXXXXXX......................XXXXXXXXXXXXX",
"XXXXXXXXXXXXX......................XXXXXXXXXXXXX",
"XXXXXXXXXXXXX......................XXXXXXXXXXXXX",
"XXXXXXXXXXXXX......................XXXXXXXXXXXXX",
"XXXXXXXXXXXXX....................XXXXXXXXXXXXXXX",
"XXXXXXXXXXXXX....................XXXXXXXXXXXXXXX",
"XXXXXXXXXXXXX......XXXXXXXXXX......XXXXXXXXXXXXX",
"XXXXXXXXXXXXX......XXXXXXXXXX......XXXXXXXXXXXXX",
"XXXXXXXXXXX......XXXXXXXXXXXX......XXXXXXXXXXXXX",
"XXXXXXXXXXX......XXXXXXXXXXXX......XXXXXXXXXXXXX",
"XXXXXXXXXXX....XXXXXXXXXXXXXXXX....XXXXXXXXXXXXX",
"XXXXXXXXXXX....XXXXXXXXXXXXXXXX....XXXXXXXXXXXXX",
"XXXXXXXXXXXXXXXXXXXXXXXXXXXXXXXXXXXXXXXXXXXXXXXX",
"XXXXXXXXXXXXXXXXXXXXXXXXXXXXXXXXXXXXXXXXXXXXXXXX",
"XXXXXXXXXXXXXXXXXXXXXXXXXXXXXXXXXXXXXXXXXXXXXXXX",
"XXXXXXXXXXXXXXXXXXXXXXXXXXXXXXXXXXXXXXXXXXXXXXXX"
};
