/* XPM */
static char *result[] = {
/* columns rows colors chars-per-pixel */
"48 48 3 1 ",
"  c gray3",
". c white",
"X c None",
/* pixels */
"XXXXXXXXXXXXXXXXXXXXXXXXXXXXXXXXXXXXXXXXXXXXXXXX",
"XXXXXXXXXXXXXXXXXXXXXXXXXXXXXXXXXXXXXXXXXXXXXXXX",
"XXXXXXXXXXXXXXXXXXXXXXXXXXXXXXXXXXXXXXXXXXXXXXXX",
"XXXXXXXXXXXXXXXXXXXXXXXXXXXXXXXXXXXXXXXXXXXXXXXX",
"XXXXXXXXXXXXXXXXXXXXXXXXXXXXXXXXXXXXXXXXXXXXXXXX",
"XXXXXXXXXXXXXXXXXXXXXXXXXXXXXXXXXXXXXXXXXXXXXXXX",
"XXXXXXXXXXXXXXXXXXX............XXXXXXXXXXXXXXXXX",
"XXXXXXXXXXXXXXXXXXX............XXXXXXXXXXXXXXXXX",
"XXXXXXXXXXXXXXX..................XXXXXXXXXXXXXXX",
"XXXXXXXXXXXXXXX..................XXXXXXXXXXXXXXX",
"XXXXXXXXXXXXX......................XXXXXXXXXXXXX",
"XXXXXXXXXXXXX......................XXXXXXXXXXXXX",
"XXXXXXXXXXX........................XXXXXXXXXXXXX",
"XXXXXXXXXXX........................XXXXXXXXXXXXX",
"XXXXXXXXXXX........................XXXXXXXXXXXXX",
"XXXXXXXXXXX........................XXXXXXXXXXXXX",
"XXXXXXXXXXX........................XXXXXXXXXXXXX",
"XXXXXXXXXXX........................XXXXXXXXXXXXX",
"XXXXXXXXXXX..........................XXXXXXXXXXX",
"XXXXXXXXXXX..........................XXXXXXXXXXX",
"XXXXXXXXXXX..........................XXXXXXXXXXX",
"XXXXXXXXXXX..........................XXXXXXXXXXX",
"XXXXXXXXXXX..........................XXXXXXXXXXX",
"XXXXXXXXXXX..........................XXXXXXXXXXX",
"XXXXXXXXXXX................    ......XXXXXXXXXXX",
"XXXXXXXXXXX................    ......XXXXXXXXXXX",
"XXXXXXXXXXX................    ......XXXXXXXXXXX",
"XXXXXXXXXXX................    ......XXXXXXXXXXX",
"XXXXXXXXXXX......    ................XXXXXXXXXXX",
"XXXXXXXXXXX......    ................XXXXXXXXXXX",
"XXXXXXXXXXXXX....    ..............XXXXXXXXXXXXX",
"XXXXXXXXXXXXX....    ..............XXXXXXXXXXXXX",
"XXXXXXXXXXXXX......................XXXXXXXXXXXXX",
"XXXXXXXXXXXXX......................XXXXXXXXXXXXX",
"XXXXXXXXXXXXX......................XXXXXXXXXXXXX",
"XXXXXXXXXXXXX......................XXXXXXXXXXXXX",
"XXXXXXXXXXXXX....XX................XXXXXXXXXXXXX",
"XXXXXXXXXXXXX....XX................XXXXXXXXXXXXX",
"XXXXXXXXXXXXX....XXXXXXXXXXXXXX....XXXXXXXXXXXXX",
"XXXXXXXXXXXXX....XXXXXXXXXXXXXX....XXXXXXXXXXXXX",
"XXXXXXXXXXXXX....XXXXXXXXXXXXXX....XXXXXXXXXXXXX",
"XXXXXXXXXXXXX....XXXXXXXXXXXXXX....XXXXXXXXXXXXX",
"XXXXXXXXXXXXXXXXXXXXXXXXXXXXXXXXXXXXXXXXXXXXXXXX",
"XXXXXXXXXXXXXXXXXXXXXXXXXXXXXXXXXXXXXXXXXXXXXXXX",
"XXXXXXXXXXXXXXXXXXXXXXXXXXXXXXXXXXXXXXXXXXXXXXXX",
"XXXXXXXXXXXXXXXXXXXXXXXXXXXXXXXXXXXXXXXXXXXXXXXX",
"XXXXXXXXXXXXXXXXXXXXXXXXXXXXXXXXXXXXXXXXXXXXXXXX",
"XXXXXXXXXXXXXXXXXXXXXXXXXXXXXXXXXXXXXXXXXXXXXXXX"
};
