/* XPM */
static char *result[] = {
/* columns rows colors chars-per-pixel */
"48 48 3 1 ",
"  c gray3",
". c white",
"X c None",
/* pixels */
"XXXXXXXXXXXXXXXXXXXXXXXXXXXXXXXXXXXXXXXXXXXXXXXX",
"XXXXXXXXXXXXXXXXXXXXXXXXXXXXXXXXXXXXXXXXXXXXXXXX",
"XXXXXXXXXXXXXXXXXXXXXXXXXXXXXXXXXXXXXXXXXXXXXXXX",
"XXXXXXXXXXXXXXXXXXXXXXXXXXXXXXXXXXXXXXXXXXXXXXXX",
"XXXXXXXXXXXXXXXXXXX....XXXXXXXXXXXXXXXXXXXXXXXXX",
"XXXXXXXXXXXXXXXXXXX....XXXXXXXXXXXXXXXXXXXXXXXXX",
"XXXXXXXXXXXXXXXXXXX....XXXXXX....XXXXXXXXXXXXXXX",
"XXXXXXXXXXXXXXXXXXX....XXXXXX....XXXXXXXXXXXXXXX",
"XXXXXXXXXXXXXXXXXXX......XXXX......XXXXXXXXXXXXX",
"XXXXXXXXXXXXXXXXXXX......XXXX......XXXXXXXXXXXXX",
"XXXXXXXXXXXXXXXXXXX......XXXX......XXXXXXXXXXXXX",
"XXXXXXXXXXXXXXXXXXX......XXXX......XXXXXXXXXXXXX",
"XXXXXXXXXXX........................XXXXXXXXXXXXX",
"XXXXXXXXXXX........................XXXXXXXXXXXXX",
"XXXXXXX................................XXXXXXXXX",
"XXXXXXX................................XXXXXXXXX",
"XXXXX....................................XXXXXXX",
"XXXXX....................................XXXXXXX",
"XXXXX..............................    ..XXXXXXX",
"XXXXX..............................    ..XXXXXXX",
"XXXXX..............................    ....XXXXX",
"XXXXX..............................    ....XXXXX",
"XXXXX......................    ............XXXXX",
"XXXXX......................    ............XXXXX",
"XXXXX......................    ............XXXXX",
"XXXXX......................    ............XXXXX",
"XXXXXXX....................................XXXXX",
"XXXXXXX....................................XXXXX",
"XXXXXXXXX..................................XXXXX",
"XXXXXXXXX..................................XXXXX",
"XXXXXXXXX..................................XXXXX",
"XXXXXXXXX..................................XXXXX",
"XXXXXXXXXXX..............................XXXXXXX",
"XXXXXXXXXXX..............................XXXXXXX",
"XXXXXXXXXXX........XXXXXX....XXXX......XXXXXXXXX",
"XXXXXXXXXXX........XXXXXX....XXXX......XXXXXXXXX",
"XXXXXXXXXXXXX........XX......XX......XXXXXXXXXXX",
"XXXXXXXXXXXXX........XX......XX......XXXXXXXXXXX",
"XXXXXXXXXXXXXXX............XX......XXXXXXXXXXXXX",
"XXXXXXXXXXXXXXX............XX......XXXXXXXXXXXXX",
"XXXXXXXXXXXXXXXXX..........XX....XXXXXXXXXXXXXXX",
"XXXXXXXXXXXXXXXXX..........XX....XXXXXXXXXXXXXXX",
"XXXXXXXXXXXXXXXXXXXXXXXXXXXXXXXXXXXXXXXXXXXXXXXX",
"XXXXXXXXXXXXXXXXXXXXXXXXXXXXXXXXXXXXXXXXXXXXXXXX",
"XXXXXXXXXXXXXXXXXXXXXXXXXXXXXXXXXXXXXXXXXXXXXXXX",
"XXXXXXXXXXXXXXXXXXXXXXXXXXXXXXXXXXXXXXXXXXXXXXXX",
"XXXXXXXXXXXXXXXXXXXXXXXXXXXXXXXXXXXXXXXXXXXXXXXX",
"XXXXXXXXXXXXXXXXXXXXXXXXXXXXXXXXXXXXXXXXXXXXXXXX"
};
