/* XPM */
static char *result[] = {
/* columns rows colors chars-per-pixel */
"48 48 3 1 ",
"  c gray3",
". c white",
"X c None",
/* pixels */
"XXXXXXXXXXXXXXXXXXXXXXXXXXXXXXXXXXXXXXXXXXXXXXXX",
"XXXXXXXXXXXXXXXXXXXXXXXXXXXXXXXXXXXXXXXXXXXXXXXX",
"XXXXXXXXXXXXXXXXXXXXXXXXXXXXXXXXXXXXXXXXXXXXXXXX",
"XXXXXXXXXXXXXXXXXXXXXXXXXXXXXXXXXXXXXXXXXXXXXXXX",
"XXXXXXXXXXXXXXXXXXXXXXXXXXXXXXXXXXXXXXXXXXXXXXXX",
"XXXXXXXXXXXXXXXXXXXXXXXXXXXXXXXXXXXXXXXXXXXXXXXX",
"XXXXXXXXXXXXXXXXXXX....XXXXXXXX....XXXXXXXXXXXXX",
"XXXXXXXXXXXXXXXXXXX....XXXXXXXX....XXXXXXXXXXXXX",
"XXXXXXXXXXXXXXXXXXX......XXXXXX....XXXXXXXXXXXXX",
"XXXXXXXXXXXXXXXXXXX......XXXXXX....XXXXXXXXXXXXX",
"XXXXXXXXXXXXXXXXXXX......XXXXXX....XXXXXXXXXXXXX",
"XXXXXXXXXXXXXXXXXXX......XXXXXX....XXXXXXXXXXXXX",
"XXXXXXXXX............................XXXXXXXXXXX",
"XXXXXXXXX............................XXXXXXXXXXX",
"XXXXXXX................................XXXXXXXXX",
"XXXXXXX................................XXXXXXXXX",
"XXXXXXX..........................    ....XXXXXXX",
"XXXXXXX..........................    ....XXXXXXX",
"XXXXX............................    ....XXXXXXX",
"XXXXX............................    ....XXXXXXX",
"XXXXX......................    ..........XXXXXXX",
"XXXXX......................    ..........XXXXXXX",
"XXXXX......................    ..........XXXXXXX",
"XXXXX......................    ..........XXXXXXX",
"XXXXXXX..................................XXXXXXX",
"XXXXXXX..................................XXXXXXX",
"XXXXXXX..................................XXXXXXX",
"XXXXXXX..................................XXXXXXX",
"XXXXXXXXX................................XXXXXXX",
"XXXXXXXXX................................XXXXXXX",
"XXXXXXXXX..............................XXXXXXXXX",
"XXXXXXXXX..............................XXXXXXXXX",
"XXXXXXXXXXX......XX....XX......XX......XXXXXXXXX",
"XXXXXXXXXXX......XX....XX......XX......XXXXXXXXX",
"XXXXXXXXXXXXX..........................XXXXXXXXX",
"XXXXXXXXXXXXX..........................XXXXXXXXX",
"XXXXXXXXXXXXX........................XXXXXXXXXXX",
"XXXXXXXXXXXXX........................XXXXXXXXXXX",
"XXXXXXXXXXXXXXX....XX......XX......XXXXXXXXXXXXX",
"XXXXXXXXXXXXXXX....XX......XX......XXXXXXXXXXXXX",
"XXXXXXXXXXXXXXXXXXXXXXXXXXXXXXXXXXXXXXXXXXXXXXXX",
"XXXXXXXXXXXXXXXXXXXXXXXXXXXXXXXXXXXXXXXXXXXXXXXX",
"XXXXXXXXXXXXXXXXXXXXXXXXXXXXXXXXXXXXXXXXXXXXXXXX",
"XXXXXXXXXXXXXXXXXXXXXXXXXXXXXXXXXXXXXXXXXXXXXXXX",
"XXXXXXXXXXXXXXXXXXXXXXXXXXXXXXXXXXXXXXXXXXXXXXXX",
"XXXXXXXXXXXXXXXXXXXXXXXXXXXXXXXXXXXXXXXXXXXXXXXX",
"XXXXXXXXXXXXXXXXXXXXXXXXXXXXXXXXXXXXXXXXXXXXXXXX",
"XXXXXXXXXXXXXXXXXXXXXXXXXXXXXXXXXXXXXXXXXXXXXXXX"
};
