/* XPM */
static char *result[] = {
/* columns rows colors chars-per-pixel */
"48 48 3 1 ",
"  c gray3",
". c white",
"X c None",
/* pixels */
"XXXXXXXXXXXXXXXXXXXXXXXXXXXXXXXXXXXXXXXXXXXXXXXX",
"XXXXXXXXXXXXXXXXXXXXXXXXXXXXXXXXXXXXXXXXXXXXXXXX",
"XXXXXXXXXXXXXXXXXXXXXXXXXXXXXXXXXXXXXXXXXXXXXXXX",
"XXXXXXXXXXXXXXXXXXXXXXXXXXXXXXXXXXXXXXXXXXXXXXXX",
"XXXXXXXXXXXXX....XXXXXXXXXXXXXXXXXXXXXXXXXXXXXXX",
"XXXXXXXXXXXXX....XXXXXXXXXXXXXXXXXXXXXXXXXXXXXXX",
"XXXXXXXXXXXXX....XXXXXXXX....XXXXXXXXXXXXXXXXXXX",
"XXXXXXXXXXXXX....XXXXXXXX....XXXXXXXXXXXXXXXXXXX",
"XXXXXXXXXXX......XXXXXX......XXXXXXXXXXXXXXXXXXX",
"XXXXXXXXXXX......XXXXXX......XXXXXXXXXXXXXXXXXXX",
"XXXXXXXXXXX......XXXXXX......XXXXXXXXXXXXXXXXXXX",
"XXXXXXXXXXX......XXXXXX......XXXXXXXXXXXXXXXXXXX",
"XXXXXXX..............................XXXXXXXXXXX",
"XXXXXXX..............................XXXXXXXXXXX",
"XXXXX..................................XXXXXXXXX",
"XXXXX..................................XXXXXXXXX",
"XXX....    ..............................XXXXXXX",
"XXX....    ..............................XXXXXXX",
"XXX....    ..............................XXXXXXX",
"XXX....    ..............................XXXXXXX",
"XXX............    ......................XXXXXXX",
"XXX............    ......................XXXXXXX",
"XXX............    ......................XXXXXXX",
"XXX............    ......................XXXXXXX",
"XXX......................................XXXXXXX",
"XXX......................................XXXXXXX",
"XXX....................................XXXXXXXXX",
"XXX....................................XXXXXXXXX",
"XXXXX..................................XXXXXXXXX",
"XXXXX..................................XXXXXXXXX",
"XXXXX................................XXXXXXXXXXX",
"XXXXX................................XXXXXXXXXXX",
"XXXXX......XXXX............XX......XXXXXXXXXXXXX",
"XXXXX......XXXX............XX......XXXXXXXXXXXXX",
"XXXXXXX......XX....................XXXXXXXXXXXXX",
"XXXXXXX......XX....................XXXXXXXXXXXXX",
"XXXXXXXXX................XX......XXXXXXXXXXXXXXX",
"XXXXXXXXX................XX......XXXXXXXXXXXXXXX",
"XXXXXXXXXXX......XX......XX....XXXXXXXXXXXXXXXXX",
"XXXXXXXXXXX......XX......XX....XXXXXXXXXXXXXXXXX",
"XXXXXXXXXXXXXXXXXXXXXXXXXXXXXXXXXXXXXXXXXXXXXXXX",
"XXXXXXXXXXXXXXXXXXXXXXXXXXXXXXXXXXXXXXXXXXXXXXXX",
"XXXXXXXXXXXXXXXXXXXXXXXXXXXXXXXXXXXXXXXXXXXXXXXX",
"XXXXXXXXXXXXXXXXXXXXXXXXXXXXXXXXXXXXXXXXXXXXXXXX",
"XXXXXXXXXXXXXXXXXXXXXXXXXXXXXXXXXXXXXXXXXXXXXXXX",
"XXXXXXXXXXXXXXXXXXXXXXXXXXXXXXXXXXXXXXXXXXXXXXXX",
"XXXXXXXXXXXXXXXXXXXXXXXXXXXXXXXXXXXXXXXXXXXXXXXX",
"XXXXXXXXXXXXXXXXXXXXXXXXXXXXXXXXXXXXXXXXXXXXXXXX"
};
