/* XPM */
static char *result[] = {
/* columns rows colors chars-per-pixel */
"48 48 3 1 ",
"  c #82261C",
". c #E5533B",
"X c None",
/* pixels */
"XXXXXXXXXXXXXXXXXXXXXXXXXXXXXXXXXXXXXXXXXXXXXXXX",
"XXXXXXXXXXXXXXXXXXXXXXXXXXXXXXXXXXXXXXXXXXXXXXXX",
"XXXXXXXXXXXXXXXXX................XXXXXXXXXXXXXXX",
"XXXXXXXXXXXXXXXXX................XXXXXXXXXXXXXXX",
"XXXXXXXXX............................XXXXXXXXXXX",
"XXXXXXXXX............................XXXXXXXXXXX",
"XXXXXXX................................XXXXXXXXX",
"XXXXXXX................................XXXXXXXXX",
"XXXXX....................................XXXXXXX",
"XXXXX....................................XXXXXXX",
"XXX........................................XXXXX",
"XXX........................................XXXXX",
"XXX........................................XXXXX",
"XXX........................................XXXXX",
"X..........................................XXXXX",
"X..........................................XXXXX",
"X............................................XXX",
"X............................................XXX",
"X............................................XXX",
"X............................................XXX",
"X......            ..........................XXX",
"X......            ..........................XXX",
"X......            ....  ..              ....XXX",
"X......            ....  ..              ....XXX",
"X........          ....  ....            ....XXX",
"X........          ....  ....            ....XXX",
"X..........      ....      ..          ......XXX",
"X..........      ....      ..          ......XXX",
"X....................  ..  ................XXXXX",
"X....................  ..  ................XXXXX",
"XXX......................  ................XXXXX",
"XXX......................  ................XXXXX",
"XXXXX....................................XXXXXXX",
"XXXXX....................................XXXXXXX",
"XXXXXXXXX............................XXXXXXXXXXX",
"XXXXXXXXX............................XXXXXXXXXXX",
"XXXXXXXXX............................XXXXXXXXXXX",
"XXXXXXXXX............................XXXXXXXXXXX",
"XXXXXXXXX....  ....  ....  ....  ....XXXXXXXXXXX",
"XXXXXXXXX....  ....  ....  ....  ....XXXXXXXXXXX",
"XXXXXXXXXXXXXXX....  ....  ....XXXXXXXXXXXXXXXXX",
"XXXXXXXXXXXXXXX....  ....  ....XXXXXXXXXXXXXXXXX",
"XXXXXXXXXXXXXXX....  ....  ....XXXXXXXXXXXXXXXXX",
"XXXXXXXXXXXXXXX....  ....  ....XXXXXXXXXXXXXXXXX",
"XXXXXXXXXXXXXXX....  ....  ....XXXXXXXXXXXXXXXXX",
"XXXXXXXXXXXXXXX....  ....  ....XXXXXXXXXXXXXXXXX",
"XXXXXXXXXXXXXXXXXXXXX....XXXXXXXXXXXXXXXXXXXXXXX",
"XXXXXXXXXXXXXXXXXXXXX....XXXXXXXXXXXXXXXXXXXXXXX"
};
