/* XPM */
static char *result[] = {
/* columns rows colors chars-per-pixel */
"48 48 3 1 ",
"  c #82261C",
". c #E5533B",
"X c None",
/* pixels */
"XXXXXXXXXXXXXXXXXXXXXXXXXXXXXXXXXXXXXXXXXXXXXXXX",
"XXXXXXXXXXXXXXXXXXXXXXXXXXXXXXXXXXXXXXXXXXXXXXXX",
"XXXXXXXXXXX........................XXXXXXXXXXXXX",
"XXXXXXXXXXX........................XXXXXXXXXXXXX",
"XXXXXXX................................XXXXXXXXX",
"XXXXXXX................................XXXXXXXXX",
"XXXXX....................................XXXXXXX",
"XXXXX....................................XXXXXXX",
"XXX........................................XXXXX",
"XXX........................................XXXXX",
"XXX........................................XXXXX",
"XXX........................................XXXXX",
"X............................................XXX",
"X............................................XXX",
"X............................................XXX",
"X............................................XXX",
"X............................................XXX",
"X............................................XXX",
"X............................................XXX",
"X............................................XXX",
"X......              ........................XXX",
"X......              ........................XXX",
"X......              ......            ......XXX",
"X......              ......            ......XXX",
"X........          ....  ..            ......XXX",
"X........          ....  ..            ......XXX",
"X........        ....      ..          ....XXXXX",
"X........        ....      ..          ....XXXXX",
"XXX..................  ..  ................XXXXX",
"XXX..................  ..  ................XXXXX",
"XXX......................................XXXXXXX",
"XXX......................................XXXXXXX",
"XXXXX..................................XXXXXXXXX",
"XXXXX..................................XXXXXXXXX",
"XXXXXXXXX............................XXXXXXXXXXX",
"XXXXXXXXX............................XXXXXXXXXXX",
"XXXXXXXXX............................XXXXXXXXXXX",
"XXXXXXXXX............................XXXXXXXXXXX",
"XXXXXXXXX..........  ....  ........XXXXXXXXXXXXX",
"XXXXXXXXX..........  ....  ........XXXXXXXXXXXXX",
"XXXXXXXXX....  ....  ....  ....XXXXXXXXXXXXXXXXX",
"XXXXXXXXX....  ....  ....  ....XXXXXXXXXXXXXXXXX",
"XXXXXXXXXXXXXXX....  ....  ....XXXXXXXXXXXXXXXXX",
"XXXXXXXXXXXXXXX....  ....  ....XXXXXXXXXXXXXXXXX",
"XXXXXXXXXXXXXXX....  ....XXXXXXXXXXXXXXXXXXXXXXX",
"XXXXXXXXXXXXXXX....  ....XXXXXXXXXXXXXXXXXXXXXXX",
"XXXXXXXXXXXXXXXXXXXXXXXXXXXXXXXXXXXXXXXXXXXXXXXX",
"XXXXXXXXXXXXXXXXXXXXXXXXXXXXXXXXXXXXXXXXXXXXXXXX"
};
