/* XPM */
static char *result[] = {
/* columns rows colors chars-per-pixel */
"48 48 3 1 ",
"  c #82261C",
". c #E5533B",
"X c None",
/* pixels */
"XXXXXXXXXXXXXXXXXXXXXXXXXXXXXXXXXXXXXXXXXXXXXXXX",
"XXXXXXXXXXXXXXXXXXXXXXXXXXXXXXXXXXXXXXXXXXXXXXXX",
"XXXXXXXXXXXXX......................XXXXXXXXXXXXX",
"XXXXXXXXXXXXX......................XXXXXXXXXXXXX",
"XXXXXXX................................XXXXXXXXX",
"XXXXXXX................................XXXXXXXXX",
"XXXXX..................................XXXXXXXXX",
"XXXXX..................................XXXXXXXXX",
"XXXXX....................................XXXXXXX",
"XXXXX....................................XXXXXXX",
"XXX........................................XXXXX",
"XXX........................................XXXXX",
"XXX........................................XXXXX",
"XXX........................................XXXXX",
"X............................................XXX",
"X............................................XXX",
"X............................................XXX",
"X............................................XXX",
"X............................................XXX",
"X............................................XXX",
"X......            ..........................XXX",
"X......            ..........................XXX",
"X......            ....  ..              ....XXX",
"X......            ....  ..              ....XXX",
"X......          ....    ..              ....XXX",
"X......          ....    ..              ....XXX",
"X........      ......      ..          ......XXX",
"X........      ......      ..          ......XXX",
"XXX....................    ................XXXXX",
"XXX....................    ................XXXXX",
"XXX......................  ................XXXXX",
"XXX......................  ................XXXXX",
"XXXXX....................................XXXXXXX",
"XXXXX....................................XXXXXXX",
"XXXXXXX................................XXXXXXXXX",
"XXXXXXX................................XXXXXXXXX",
"XXXXXXXXX............................XXXXXXXXXXX",
"XXXXXXXXX............................XXXXXXXXXXX",
"XXXXXXXXX....  ......................XXXXXXXXXXX",
"XXXXXXXXX....  ......................XXXXXXXXXXX",
"XXXXXXXXXXXXX......  ....  ....XXXXXXXXXXXXXXXXX",
"XXXXXXXXXXXXX......  ....  ....XXXXXXXXXXXXXXXXX",
"XXXXXXXXXXXXX......  ....  ....XXXXXXXXXXXXXXXXX",
"XXXXXXXXXXXXX......  ....  ....XXXXXXXXXXXXXXXXX",
"XXXXXXXXXXXXX....XXXX....  ....XXXXXXXXXXXXXXXXX",
"XXXXXXXXXXXXX....XXXX....  ....XXXXXXXXXXXXXXXXX",
"XXXXXXXXXXXXXXXXXXXXX....XXXXXXXXXXXXXXXXXXXXXXX",
"XXXXXXXXXXXXXXXXXXXXX....XXXXXXXXXXXXXXXXXXXXXXX"
};
